<?xml version="1.0" encoding="utf-8"?>
<!-- Generator: Adobe Illustrator 16.0.0, SVG Export Plug-In . SVG Version: 6.00 Build 0)  -->
<!DOCTYPE svg PUBLIC "-//W3C//DTD SVG 1.1//EN" "http://www.w3.org/Graphics/SVG/1.1/DTD/svg11.dtd">
<svg version="1.1" id="Ebene_1" xmlns="http://www.w3.org/2000/svg" xmlns:xlink="http://www.w3.org/1999/xlink" x="0px" y="0px"
	 width="33.612px" height="33.677px" viewBox="0 0 33.612 33.677" enable-background="new 0 0 33.612 33.677" xml:space="preserve">
<g>
	<rect x="155.26" y="-29.151" fill="#697786" width="9.932" height="9.558"/>
	<g>
		<defs>
			<rect id="SVGID_1_" x="138.426" y="-73.33" width="41.517" height="54.73"/>
		</defs>
		<clipPath id="SVGID_2_">
			<use xlink:href="#SVGID_1_"  overflow="visible"/>
		</clipPath>
		<path clip-path="url(#SVGID_2_)" fill="#697786" d="M179.942-57.814c0,0.247,0,0.476-0.038,0.702
			c-0.04,4.242-2.059,8.265-5.598,11.041c-1.863,1.294-3.732,2.569-5.599,3.848v0.016c-2.178,1.521-3.458,3.844-3.458,6.308v1.046
			h-9.991v-0.59c0-0.559,0-1.135-0.041-1.715c0-0.208-0.036-0.454-0.036-0.696c0-1.348,0.269-2.693,0.735-3.987
			c0.819-2.165,2.336-4.054,4.432-5.381c0.743-0.487,1.439-0.979,2.178-1.467c1.44-1.013,2.841-2.061,4.2-3.185
			c1.786-1.5,2.801-3.598,2.801-5.798c-0.351-3.077-2.682-5.696-5.95-6.675c-1.439-0.489-2.952-0.751-4.509-0.751
			c-1.519,0-2.993,0.247-4.396,0.718c-1.28,0.422-2.407,1.118-3.303,2.025c-1.749,1.856-2.72,4.178-2.757,6.606h-10.186v-0.208
			c0-2.48,0.542-4.93,1.631-7.218h-0.037c2.019-3.722,5.439-6.706,9.6-8.459c3.151-1.136,6.491-1.692,9.875-1.692
			c2.411,0,4.821,0.294,7.191,0.873c3.693,0.941,7.038,2.864,9.524,5.504C178.625-64.399,179.942-61.169,179.942-57.814"/>
	</g>
</g>
<polygon fill="#697786" points="118.518,-26.754 99.621,-45.651 118.389,-64.419 111.142,-71.667 92.374,-52.898 73.476,-71.795 
	66.229,-64.548 85.126,-45.651 66.101,-26.625 73.348,-19.378 92.373,-38.404 111.27,-19.507 "/>
<polygon fill="#697786" points="21.889,-64.087 14.872,-71.104 -10.71,-45.521 14.982,-19.83 15.446,-19.83 14.979,-20.298 
	21.758,-27.077 7.642,-40.016 60.646,-40.016 60.646,-51.027 7.643,-51.027 "/>
<path d="M0,19.562v-5.414h14.051V0h5.511v14.147h14.051v5.414H19.562v14.115h-5.511V19.562H0z"/>
<polygon points="52.801,19.562 58.312,19.562 72.362,19.562 72.362,14.17 45.04,14.17 45.04,14.147 38.75,14.147 38.75,19.562 
	45.79,19.562 "/>
</svg>
