<?xml version="1.0" encoding="utf-8"?>
<!-- Generator: Adobe Illustrator 16.0.0, SVG Export Plug-In . SVG Version: 6.00 Build 0)  -->
<!DOCTYPE svg PUBLIC "-//W3C//DTD SVG 1.1//EN" "http://www.w3.org/Graphics/SVG/1.1/DTD/svg11.dtd">
<svg version="1.1" id="Ebene_1" xmlns="http://www.w3.org/2000/svg" xmlns:xlink="http://www.w3.org/1999/xlink" x="0px" y="0px"
	 width="33.612px" height="33.677px" viewBox="0 0 33.612 33.677" enable-background="new 0 0 33.612 33.677" xml:space="preserve">
<g>
	<rect x="116.438" y="-29.151" fill="#697786" width="9.932" height="9.558"/>
	<g>
		<defs>
			<rect id="SVGID_1_" x="99.604" y="-73.33" width="41.517" height="54.73"/>
		</defs>
		<clipPath id="SVGID_2_">
			<use xlink:href="#SVGID_1_"  overflow="visible"/>
		</clipPath>
		<path clip-path="url(#SVGID_2_)" fill="#697786" d="M141.12-57.814c0,0.247,0,0.476-0.038,0.702
			c-0.04,4.242-2.059,8.265-5.598,11.041c-1.863,1.294-3.732,2.569-5.599,3.848v0.016c-2.178,1.521-3.458,3.844-3.458,6.308v1.046
			h-9.991v-0.59c0-0.559,0-1.135-0.041-1.715c0-0.208-0.036-0.454-0.036-0.696c0-1.348,0.269-2.693,0.735-3.987
			c0.819-2.165,2.336-4.054,4.432-5.381c0.743-0.487,1.439-0.979,2.178-1.467c1.44-1.013,2.841-2.061,4.2-3.185
			c1.786-1.5,2.801-3.598,2.801-5.798c-0.351-3.077-2.682-5.696-5.95-6.675c-1.439-0.489-2.952-0.751-4.509-0.751
			c-1.519,0-2.993,0.247-4.396,0.718c-1.28,0.422-2.407,1.118-3.303,2.025c-1.749,1.856-2.72,4.178-2.757,6.606H99.604v-0.208
			c0-2.48,0.542-4.93,1.631-7.218h-0.037c2.019-3.722,5.439-6.706,9.6-8.459c3.151-1.136,6.491-1.692,9.875-1.692
			c2.411,0,4.821,0.294,7.191,0.873c3.693,0.941,7.038,2.864,9.524,5.504C139.802-64.399,141.12-61.169,141.12-57.814"/>
	</g>
</g>
<polygon fill="#697786" points="79.695,-26.754 60.798,-45.651 79.566,-64.419 72.319,-71.667 53.551,-52.898 34.654,-71.795 
	27.406,-64.548 46.304,-45.651 27.278,-26.625 34.525,-19.378 53.551,-38.404 72.448,-19.507 "/>
<polygon fill="#697786" points="-16.934,-64.087 -23.95,-71.104 -49.532,-45.521 -23.84,-19.83 -23.376,-19.83 -23.844,-20.298 
	-17.064,-27.077 -31.18,-40.016 21.823,-40.016 21.823,-51.027 -31.179,-51.027 "/>
<path d="M-38.822,19.562v-5.414h14.051V0h5.511v14.147H-5.21v5.414h-14.051v14.115h-5.511V19.562H-38.822z"/>
<polygon points="13.979,19.562 19.489,19.562 33.54,19.562 33.54,14.17 6.218,14.17 6.218,14.147 -0.072,14.147 -0.072,19.562 
	6.968,19.562 "/>
</svg>
