<?xml version="1.0" encoding="utf-8"?>
<!-- Generator: Adobe Illustrator 16.0.0, SVG Export Plug-In . SVG Version: 6.00 Build 0)  -->
<!DOCTYPE svg PUBLIC "-//W3C//DTD SVG 1.1//EN" "http://www.w3.org/Graphics/SVG/1.1/DTD/svg11.dtd">
<svg version="1.1" id="Ebene_1" xmlns="http://www.w3.org/2000/svg" xmlns:xlink="http://www.w3.org/1999/xlink" x="0px" y="0px"
	 width="42.114px" height="53.737px" viewBox="0 0 42.114 53.737" enable-background="new 0 0 42.114 53.737" xml:space="preserve">
<g>
	<rect x="16.834" y="44.179" fill="#697786" width="9.932" height="9.558"/>
	<g>
		<defs>
			<rect id="SVGID_1_" width="41.517" height="54.73"/>
		</defs>
		<clipPath id="SVGID_2_">
			<use xlink:href="#SVGID_1_"  overflow="visible"/>
		</clipPath>
		<path clip-path="url(#SVGID_2_)" fill="#697786" d="M41.517,15.516c0,0.247,0,0.476-0.038,0.702
			c-0.04,4.242-2.059,8.265-5.598,11.041c-1.863,1.294-3.732,2.569-5.599,3.848v0.016c-2.178,1.521-3.458,3.844-3.458,6.308v1.046
			h-9.991v-0.59c0-0.559,0-1.135-0.041-1.715c0-0.208-0.036-0.454-0.036-0.696c0-1.348,0.269-2.693,0.735-3.987
			c0.819-2.165,2.336-4.054,4.432-5.381c0.743-0.487,1.439-0.979,2.178-1.467c1.44-1.013,2.841-2.061,4.2-3.185
			c1.786-1.5,2.801-3.598,2.801-5.798c-0.351-3.077-2.682-5.696-5.95-6.675c-1.439-0.489-2.952-0.751-4.509-0.751
			c-1.519,0-2.993,0.247-4.396,0.718c-1.28,0.422-2.407,1.118-3.303,2.025c-1.749,1.856-2.72,4.178-2.757,6.606H0V17.37
			c0-2.48,0.542-4.93,1.631-7.218H1.594c2.019-3.722,5.439-6.706,9.6-8.459c3.151-1.136,6.491-1.692,9.875-1.692
			c2.411,0,4.821,0.294,7.191,0.873c3.693,0.941,7.038,2.864,9.524,5.504C40.199,8.931,41.517,12.161,41.517,15.516"/>
	</g>
</g>
<polygon fill="#697786" points="-19.908,46.576 -38.805,27.679 -20.037,8.911 -27.284,1.663 -46.052,20.432 -64.95,1.535 
	-72.197,8.782 -53.3,27.679 -72.325,46.705 -65.078,53.952 -46.053,34.926 -27.156,53.823 "/>
<polygon fill="#697786" points="-116.537,9.243 -123.554,2.227 -149.136,27.809 -123.443,53.5 -122.979,53.5 -123.447,53.032 
	-116.668,46.253 -130.784,33.314 -77.78,33.314 -77.78,22.303 -130.783,22.303 "/>
<path d="M-138.426,92.892v-5.414h14.051V73.33h5.511v14.147h14.051v5.414h-14.051v14.115h-5.511V92.892H-138.426z"/>
<polygon points="-85.625,92.892 -80.114,92.892 -66.063,92.892 -66.063,87.5 -93.386,87.5 -93.386,87.478 -99.676,87.478 
	-99.676,92.892 -92.636,92.892 "/>
</svg>
