<?xml version="1.0" encoding="utf-8"?>
<!-- Generator: Adobe Illustrator 16.0.0, SVG Export Plug-In . SVG Version: 6.00 Build 0)  -->
<!DOCTYPE svg PUBLIC "-//W3C//DTD SVG 1.1//EN" "http://www.w3.org/Graphics/SVG/1.1/DTD/svg11.dtd">
<svg version="1.1" id="Ebene_1" xmlns="http://www.w3.org/2000/svg" xmlns:xlink="http://www.w3.org/1999/xlink" x="0px" y="0px"
	 width="52.417px" height="52.417px" viewBox="0 0 52.417 52.417" enable-background="new 0 0 52.417 52.417" xml:space="preserve">
<g>
	<rect x="89.16" y="42.645" fill="#697786" width="9.932" height="9.558"/>
	<g>
		<defs>
			<rect id="SVGID_1_" x="72.325" y="-1.535" width="41.517" height="54.73"/>
		</defs>
		<clipPath id="SVGID_2_">
			<use xlink:href="#SVGID_1_"  overflow="visible"/>
		</clipPath>
		<path clip-path="url(#SVGID_2_)" fill="#697786" d="M113.842,13.981c0,0.247,0,0.476-0.038,0.702
			c-0.04,4.242-2.059,8.265-5.598,11.041c-1.863,1.294-3.732,2.569-5.599,3.848v0.016c-2.178,1.521-3.458,3.844-3.458,6.308v1.046
			h-9.991v-0.59c0-0.559,0-1.135-0.041-1.715c0-0.208-0.036-0.454-0.036-0.696c0-1.348,0.269-2.693,0.735-3.987
			c0.819-2.165,2.336-4.054,4.432-5.381c0.743-0.487,1.439-0.979,2.178-1.467c1.44-1.013,2.841-2.061,4.2-3.185
			c1.786-1.5,2.801-3.598,2.801-5.798c-0.351-3.077-2.682-5.696-5.95-6.675c-1.439-0.489-2.952-0.751-4.509-0.751
			c-1.519,0-2.993,0.247-4.396,0.718c-1.28,0.422-2.407,1.118-3.303,2.025c-1.749,1.856-2.72,4.178-2.757,6.606H72.325v-0.208
			c0-2.48,0.542-4.93,1.631-7.218h-0.037c2.019-3.722,5.439-6.706,9.6-8.459c3.151-1.136,6.491-1.692,9.875-1.692
			c2.411,0,4.821,0.294,7.191,0.873c3.693,0.941,7.038,2.864,9.524,5.504C112.524,7.396,113.842,10.626,113.842,13.981"/>
	</g>
</g>
<polygon fill="#697786" points="52.417,45.042 33.52,26.144 52.288,7.376 45.041,0.128 26.273,18.897 7.375,0 0.128,7.248 
	19.025,26.145 0,45.17 7.247,52.417 26.272,33.392 45.169,52.289 "/>
<polygon fill="#697786" points="-44.212,7.708 -51.229,0.692 -76.811,26.274 -51.118,51.965 -50.654,51.965 -51.122,51.498 
	-44.343,44.718 -58.458,31.78 -5.455,31.78 -5.455,20.768 -58.458,20.768 "/>
<path d="M-66.101,91.357v-5.414h14.051V71.795h5.511v14.147h14.051v5.414h-14.051v14.115h-5.511V91.357H-66.101z"/>
<polygon points="-13.3,91.357 -7.789,91.357 6.262,91.357 6.262,85.965 -21.061,85.965 -21.061,85.943 -27.351,85.943 
	-27.351,91.357 -20.311,91.357 "/>
</svg>
