<?xml version="1.0" encoding="utf-8"?>
<!-- Generator: Adobe Illustrator 16.0.0, SVG Export Plug-In . SVG Version: 6.00 Build 0)  -->
<!DOCTYPE svg PUBLIC "-//W3C//DTD SVG 1.1//EN" "http://www.w3.org/Graphics/SVG/1.1/DTD/svg11.dtd">
<svg version="1.1" id="Ebene_1" xmlns="http://www.w3.org/2000/svg" xmlns:xlink="http://www.w3.org/1999/xlink" x="0px" y="0px"
	 width="71.355px" height="51.385px" viewBox="0 0 71.355 51.385" enable-background="new 0 0 71.355 51.385" xml:space="preserve">
<g>
	<rect x="165.97" y="42.064" fill="#697786" width="9.932" height="9.558"/>
	<g>
		<defs>
			<rect id="SVGID_1_" x="149.136" y="-2.115" width="41.517" height="54.73"/>
		</defs>
		<clipPath id="SVGID_2_">
			<use xlink:href="#SVGID_1_"  overflow="visible"/>
		</clipPath>
		<path clip-path="url(#SVGID_2_)" fill="#697786" d="M190.652,13.401c0,0.247,0,0.476-0.038,0.702
			c-0.04,4.242-2.059,8.265-5.598,11.041c-1.863,1.294-3.732,2.569-5.599,3.848v0.016c-2.178,1.521-3.458,3.844-3.458,6.308v1.046
			h-9.991v-0.59c0-0.559,0-1.135-0.041-1.715c0-0.208-0.036-0.454-0.036-0.696c0-1.348,0.269-2.693,0.735-3.987
			c0.819-2.165,2.336-4.054,4.432-5.381c0.743-0.487,1.439-0.979,2.178-1.467c1.44-1.013,2.841-2.061,4.2-3.185
			c1.786-1.5,2.801-3.598,2.801-5.798c-0.351-3.077-2.682-5.696-5.95-6.675c-1.439-0.489-2.952-0.751-4.509-0.751
			c-1.519,0-2.993,0.247-4.396,0.718c-1.28,0.422-2.407,1.118-3.303,2.025c-1.749,1.856-2.72,4.178-2.757,6.606h-10.186v-0.208
			c0-2.48,0.542-4.93,1.631-7.218h-0.037c2.019-3.722,5.439-6.706,9.6-8.459c3.151-1.136,6.491-1.692,9.875-1.692
			c2.411,0,4.821,0.294,7.191,0.873c3.693,0.941,7.038,2.864,9.524,5.504C189.334,6.816,190.652,10.045,190.652,13.401"/>
	</g>
</g>
<polygon fill="#697786" points="129.228,44.461 110.331,25.563 129.099,6.795 121.852,-0.452 103.083,18.316 84.186,-0.581 
	76.938,6.667 95.836,25.564 76.811,44.589 84.058,51.837 103.083,32.811 121.98,51.708 "/>
<polygon fill="#697786" points="32.599,7.128 25.582,0.111 0,25.693 25.692,51.385 26.156,51.385 25.688,50.917 32.468,44.138 
	18.352,31.199 71.355,31.199 71.355,20.188 18.353,20.188 "/>
<path d="M10.71,90.776v-5.414h14.051V71.215h5.511v14.147h14.051v5.414H30.271v14.115h-5.511V90.776H10.71z"/>
<polygon points="63.511,90.776 69.021,90.776 83.072,90.776 83.072,85.385 55.75,85.385 55.75,85.362 49.46,85.362 49.46,90.776 
	56.5,90.776 "/>
</svg>
